<mxfile host="app.diagrams.net" agent="Mozilla/5.0 (Windows NT 10.0; Win64; x64) AppleWebKit/537.36 (KHTML, like Gecko) Chrome/126.0.0.0 Safari/537.36" version="24.7.5">
  <diagram name="Страница — 1" id="pMkfU3jz5eLTFBJHSuNm">
    <mxGraphModel dx="1403" dy="450" grid="1" gridSize="10" guides="1" tooltips="1" connect="1" arrows="1" fold="1" page="1" pageScale="1" pageWidth="827" pageHeight="1169" math="0" shadow="0">
      <root>
        <mxCell id="0" />
        <mxCell id="1" parent="0" />
        <mxCell id="0s9YLjE5SzTz71vnaRI2-1" value="" style="rounded=0;whiteSpace=wrap;html=1;" parent="1" vertex="1">
          <mxGeometry x="-320" y="210" width="480" height="290" as="geometry" />
        </mxCell>
        <mxCell id="S8Gr5_tTL3bmlXB5-VWG-25" style="edgeStyle=orthogonalEdgeStyle;rounded=0;orthogonalLoop=1;jettySize=auto;html=1;exitX=0.007;exitY=0.127;exitDx=0;exitDy=0;entryX=1;entryY=0.5;entryDx=0;entryDy=0;exitPerimeter=0;" edge="1" parent="1" target="S8Gr5_tTL3bmlXB5-VWG-27">
          <mxGeometry relative="1" as="geometry">
            <mxPoint x="-58.67000000000007" y="269.21000000000004" as="sourcePoint" />
            <mxPoint x="-130" y="355" as="targetPoint" />
          </mxGeometry>
        </mxCell>
        <mxCell id="S8Gr5_tTL3bmlXB5-VWG-26" value="read,&amp;nbsp;&lt;div&gt;update&lt;/div&gt;" style="edgeLabel;html=1;align=center;verticalAlign=middle;resizable=0;points=[];" vertex="1" connectable="0" parent="S8Gr5_tTL3bmlXB5-VWG-25">
          <mxGeometry x="-0.3657" y="2" relative="1" as="geometry">
            <mxPoint x="-8" y="-2" as="offset" />
          </mxGeometry>
        </mxCell>
        <mxCell id="S8Gr5_tTL3bmlXB5-VWG-32" style="edgeStyle=orthogonalEdgeStyle;rounded=0;orthogonalLoop=1;jettySize=auto;html=1;exitX=0;exitY=0.5;exitDx=0;exitDy=0;entryX=1;entryY=0.5;entryDx=0;entryDy=0;" edge="1" parent="1" target="S8Gr5_tTL3bmlXB5-VWG-28">
          <mxGeometry relative="1" as="geometry">
            <mxPoint x="-60" y="355" as="sourcePoint" />
          </mxGeometry>
        </mxCell>
        <mxCell id="S8Gr5_tTL3bmlXB5-VWG-33" value="get user data" style="edgeLabel;html=1;align=center;verticalAlign=middle;resizable=0;points=[];" vertex="1" connectable="0" parent="S8Gr5_tTL3bmlXB5-VWG-32">
          <mxGeometry x="0.2928" y="2" relative="1" as="geometry">
            <mxPoint x="9" y="-2" as="offset" />
          </mxGeometry>
        </mxCell>
        <mxCell id="S8Gr5_tTL3bmlXB5-VWG-27" value="Database" style="rounded=0;whiteSpace=wrap;html=1;" vertex="1" parent="1">
          <mxGeometry x="-290" y="240" width="120" height="60" as="geometry" />
        </mxCell>
        <mxCell id="S8Gr5_tTL3bmlXB5-VWG-28" value="OAuth provider" style="rounded=0;whiteSpace=wrap;html=1;" vertex="1" parent="1">
          <mxGeometry x="-290" y="330" width="120" height="60" as="geometry" />
        </mxCell>
        <mxCell id="S8Gr5_tTL3bmlXB5-VWG-29" value="Application" style="rounded=0;whiteSpace=wrap;html=1;" vertex="1" parent="1">
          <mxGeometry x="-290" y="410" width="120" height="60" as="geometry" />
        </mxCell>
        <mxCell id="S8Gr5_tTL3bmlXB5-VWG-30" style="edgeStyle=orthogonalEdgeStyle;rounded=0;orthogonalLoop=1;jettySize=auto;html=1;exitX=1;exitY=0.5;exitDx=0;exitDy=0;entryX=0.005;entryY=0.867;entryDx=0;entryDy=0;entryPerimeter=0;" edge="1" parent="1" source="S8Gr5_tTL3bmlXB5-VWG-29">
          <mxGeometry relative="1" as="geometry">
            <mxPoint x="-59.049999999999955" y="439.4100000000001" as="targetPoint" />
          </mxGeometry>
        </mxCell>
        <mxCell id="S8Gr5_tTL3bmlXB5-VWG-31" value="register,&lt;div style=&quot;font-size: 11px;&quot;&gt;use for&lt;/div&gt;&lt;div style=&quot;font-size: 11px;&quot;&gt;authorization&lt;/div&gt;" style="edgeLabel;html=1;align=center;verticalAlign=middle;resizable=0;points=[];fontSize=11;" vertex="1" connectable="0" parent="S8Gr5_tTL3bmlXB5-VWG-30">
          <mxGeometry x="-0.2463" y="-1" relative="1" as="geometry">
            <mxPoint as="offset" />
          </mxGeometry>
        </mxCell>
        <mxCell id="S8Gr5_tTL3bmlXB5-VWG-34" value="auth0" style="rounded=0;whiteSpace=wrap;html=1;" vertex="1" parent="1">
          <mxGeometry x="-60" y="240" width="190" height="230" as="geometry" />
        </mxCell>
      </root>
    </mxGraphModel>
  </diagram>
</mxfile>
